<svg width="20" height="20" viewBox="0 0 20 20" fill="none" xmlns="http://www.w3.org/2000/svg">
<g clip-path="url(#clip0_49_148)">
<path d="M8.83271 5.23598C9.71112 5.23598 10.4232 4.52388 10.4232 3.64547C10.4232 2.76705 9.71112 2.05495 8.83271 2.05495C7.95429 2.05495 7.24219 2.76705 7.24219 3.64547C7.24219 4.52388 7.95429 5.23598 8.83271 5.23598Z" stroke="white" stroke-width="1.78933" stroke-linecap="round" stroke-linejoin="round"/>
<path d="M14.3995 8.41703C15.2779 8.41703 15.99 7.70493 15.99 6.82651C15.99 5.94809 15.2779 5.23599 14.3995 5.23599C13.5211 5.23599 12.809 5.94809 12.809 6.82651C12.809 7.70493 13.5211 8.41703 14.3995 8.41703Z" stroke="white" stroke-width="1.78933" stroke-linecap="round" stroke-linejoin="round"/>
<path d="M15.9901 14.7791C16.8685 14.7791 17.5806 14.067 17.5806 13.1886C17.5806 12.3102 16.8685 11.5981 15.9901 11.5981C15.1116 11.5981 14.3995 12.3102 14.3995 13.1886C14.3995 14.067 15.1116 14.7791 15.9901 14.7791Z" stroke="white" stroke-width="1.78933" stroke-linecap="round" stroke-linejoin="round"/>
<path d="M7.24225 8.41704C7.76443 8.41704 8.28149 8.51989 8.76391 8.71972C9.24634 8.91954 9.68468 9.21243 10.0539 9.58167C10.4231 9.9509 10.716 10.3892 10.9159 10.8717C11.1157 11.3541 11.2185 11.8712 11.2185 12.3933V15.1767C11.2183 15.8419 10.9799 16.4851 10.5464 16.9896C10.1129 17.4942 9.51308 17.8269 8.85551 17.9273C8.19793 18.0278 7.52612 17.8894 6.96176 17.5373C6.3974 17.1852 5.9778 16.6426 5.77897 16.0078C5.43966 14.913 4.72393 14.1959 3.63178 13.8566C2.9973 13.6579 2.45492 13.2386 2.10278 12.6747C1.75063 12.1107 1.61199 11.4394 1.71193 10.782C1.81187 10.1247 2.1438 9.52491 2.64765 9.09111C3.1515 8.65731 3.79398 8.4182 4.45884 8.41704H7.24225Z" stroke="white" stroke-width="1.78933" stroke-linecap="round" stroke-linejoin="round"/>
</g>
<defs>
<clipPath id="clip0_49_148">
<rect width="19.0862" height="19.0862" fill="white" transform="translate(0.0849609 0.464432)"/>
</clipPath>
</defs>
</svg>
